<?xml version="1.0" encoding="utf-8"?>
<!-- Generator: Adobe Illustrator 19.0.0, SVG Export Plug-In . SVG Version: 6.00 Build 0)  -->
<svg version="1.1" id="Layer_1" xmlns="http://www.w3.org/2000/svg" xmlns:xlink="http://www.w3.org/1999/xlink" x="0px" y="0px"
	 viewBox="-163 291.5 283.5 210.5" style="enable-background:new -163 291.5 283.5 210.5;" xml:space="preserve">
<path d="M50.1,408.9c-0.7,0-1,0.1-1.3,0.1c-12.3,0-24.6,0-36.8,0c-0.7,0-1.2-0.2-1.6-0.8C-3.1,385.8-16.6,363.4-30,341
	c-0.1-0.2-0.2-0.2-0.3-0.6c9.6-5.7,19.2-11.5,28.8-17.4C15.7,351.7,32.9,380.1,50.1,408.9z"/>
<path d="M-3.2,409.2c-0.4-0.1-0.9-0.2-1.3-0.2c-12.1,0-24.2,0-36.3,0c-1.1,0-1.6-0.3-2.1-1.2c-7.1-11.9-14.2-23.7-21.3-35.5
	c-0.2-0.3-0.4-0.7-0.7-1.1c9.6-5.8,19.2-11.5,28.8-17.4c0.2,0.4,0.5,0.7,0.7,1.1c10.6,17.7,21.2,35.4,31.8,53
	C-3.5,408.2-3.4,408.7-3.2,409.2L-3.2,409.2z"/>
<path d="M-46.4,454c-2.8,0-5.3,0-8,0c-0.1-0.6-0.1-1.1-0.2-1.7c-4.6,2.7-9.3,3.4-14.3,2c-3.8-1.1-6.9-3.3-9.2-6.4
	c-4.7-6.3-4.7-15,0-21.3c2.8-3.7,6.4-5.9,10.9-6.8c4.5-0.8,8.7,0.1,12.8,2.5c0-4.5,0-8.8,0-13.3c2.8,0,5.5,0,8.1,0
	C-46.4,424-46.4,439-46.4,454z M-54.5,437.4c0.7-4.8-3.9-9.8-9.6-9.8c-5.4,0-9.8,4.3-9.8,9.7s4.4,9.7,9.8,9.7
	C-58.5,447.1-53.9,441.9-54.5,437.4z"/>
<path d="M-3.2,409.2c0.8-0.1,1.6-0.2,2.4-0.2c2,0,3.9,0,6,0c0,15.1,0,30,0,45c-2.7,0-5.3,0-8,0c0-0.5-0.1-1-0.1-1.5
	c-10.1,4.7-18.7,3.1-24.9-6.5c-4.1-6.4-2.9-14.8,2.2-20.5c4.4-4.9,13.3-8.5,22.6-3.2C-3,422-3,421.7-3,421.5c0-3.8,0-7.6,0-11.5
	C-3,409.8-3.1,409.4-3.2,409.2L-3.2,409.2z M-3,437.3c0.6-4.4-3.7-9.7-9.6-9.7c-5.3,0-9.7,4.3-9.7,9.7c0,5.5,4.3,9.8,9.8,9.8
	C-6.7,447-2.4,441.8-3,437.3z"/>
<path d="M-93.2,422.3c0.1-0.7,0.1-1.1,0.2-1.7c2.6,0,5.2,0,8,0c0,11.1,0,22.2,0,33.4c-2.6,0-5.2,0-7.9,0c-0.1-0.5-0.1-1-0.2-1.6
	c-4.9,2.9-9.9,3.5-15.2,1.7c-3.8-1.3-6.9-3.7-9.1-7.1c-4.4-6.7-3.7-15.6,1.7-21.6C-110.6,419.7-101.6,417.3-93.2,422.3z
	 M-93.1,437.4c0.6-4.5-3.7-9.7-9.6-9.7c-5.4,0-9.7,4.3-9.7,9.7s4.4,9.7,9.7,9.7C-96.9,447-92.5,441.8-93.1,437.4z"/>
<path d="M35.3,422.3c0.1-0.7,0.1-1.2,0.1-1.8c2.7,0,5.2,0,7.9,0c0,11.1,0,22.3,0,33.4c-2.6,0-5.2,0-7.9,0c-0.1-0.5-0.1-1-0.2-1.7
	c-4.7,2.8-9.7,3.5-14.8,1.9c-3.8-1.1-6.7-3.4-9-6.5c-4.6-6.3-4.5-14.9,0.2-21c2.8-3.6,6.5-5.9,11-6.7
	C27.1,419,31.2,419.9,35.3,422.3z M35.3,437.4c0.6-4.4-3.5-9.8-9.6-9.8c-5.4,0-9.7,4.3-9.7,9.7s4.3,9.7,9.7,9.7
	S35.3,442.8,35.3,437.4z"/>
<path d="M47.1,442.9c3,0,6,0,8.9,0c0.7,3.3,2,4.5,5.3,4.7c1.5,0.1,3,0,4.6-0.2c0.7-0.1,1.6-0.6,2.1-1.1c1.5-1.2,1.4-3-0.4-3.9
	c-1.3-0.7-2.9-1.1-4.3-1.5c-2.9-0.8-5.8-1.4-8.6-2.3c-3.2-1.1-5.6-3-6.3-6.5c-1-5.1,1.7-9.8,6.5-11.8c3.4-1.4,6.9-1.3,10.3-1
	c2.6,0.2,5.1,0.8,7.3,2.3c3,2,4.3,4.9,4.3,8.5c-2.9,0-5.7,0-8.6,0c-1.5-3.8-2.9-4.6-7-4.3c-1,0.1-1.9,0.2-2.8,0.6
	c-1.1,0.4-1.6,1.3-1.7,2.5s0.7,1.8,1.6,2c2,0.7,3.9,1.2,5.9,1.8c2.3,0.7,4.7,1.1,7,2c3.5,1.2,6.2,3.4,6.5,7.4
	c0.3,4.3-1.1,7.8-4.9,10.1c-3.8,2.2-8,2.6-12.3,2.3c-2.8-0.2-5.5-0.7-8-2.1C49,450.3,47.1,447.3,47.1,442.9z"/>
<path d="M-71,384.2c4.9,8.2,9.8,16.4,14.8,24.6c-0.4,0.1-0.7,0.1-1.1,0.1c-12.4,0-24.7,0-37.1,0c-0.8,0-1.3-0.2-1.7-1
	c-1.2-2.1-2.5-4.2-3.8-6.4C-90.2,395.8-80.6,390-71,384.2z"/>
<path d="M-42.2,419.6c2.9,0,5.8,0,8.7,0c0,11.5,0,22.8,0,34.3c-2.9,0-5.7,0-8.7,0C-42.2,442.5-42.2,431.1-42.2,419.6z"/>
<path d="M-33.4,416.8c-3,0-5.9,0-8.8,0c0-2.4,0-4.7,0-7.1c0-0.2,0.5-0.7,0.7-0.7c2.4-0.1,4.8-0.1,7.2,0c0.3,0,0.8,0.5,0.8,0.7
	C-33.4,412.1-33.4,414.4-33.4,416.8z"/>
</svg>
