<?xml version="1.0" encoding="utf-8"?>
<!-- Generator: Adobe Illustrator 19.0.0, SVG Export Plug-In . SVG Version: 6.00 Build 0)  -->
<svg version="1.1" id="Layer_1" xmlns="http://www.w3.org/2000/svg" xmlns:xlink="http://www.w3.org/1999/xlink" x="0px" y="0px"
	 viewBox="-163 293 283.5 208.5" style="enable-background:new -163 293 283.5 208.5;" xml:space="preserve">
<style type="text/css">
	.st0{fill:#0B2265;}
	.st1{font-family:'MyriadPro-Regular';}
	.st2{font-size:7.1697px;}
</style>
<path id="XMLID_21_" class="st0" d="M-88.6,393.3c0.7-0.9,1.2-1.5,1.7-2.2c3.3-4.5,6.2-9.1,7.5-14.6c1.7-6.7-1.5-11.3-8.4-12.2
	c-4.8-0.6-9.3,0.5-13.7,2c-6.3,2.1-12.1,5.2-17.6,8.8c-0.4,0.3-0.8,0.5-1.2,0.8c-0.8-0.5-0.9-0.9-0.1-1.4
	c10.1-8,21.1-14.1,34.2-15.5c2.9-0.3,5.9-0.1,8.8,0.5c6.5,1.3,10.6,6.4,11,13.1c0.3,4.9-0.8,9.5-2.6,14c-4.3,11-10.9,20.4-18.7,29.2
	c-7.3,8.2-15.5,15.4-25.2,20.7c-6.1,3.3-12.4,5.4-19.4,5.1c-8-0.3-13.8-5.2-14.6-12.9c-0.4-3.9,0.4-7.7,1.8-11.4
	c2.4-6.2,6.3-11.3,11-15.9c8.6-8.4,18.4-14.7,30.1-17.8c2.9-0.7,5.8-1,8.8-0.5c5,0.9,7.5,4.4,6.6,9.3
	C-88.6,392.6-88.6,392.8-88.6,393.3z M-98.4,387.9c-1.3,0.2-2.7,0.3-3.9,0.7c-10,3-17.7,9-23.4,17.7c-0.6,0.9-1,1.9-1.3,2.9
	c-1.7,5.1,1.6,9.1,6.8,8.2c2.3-0.4,4.6-1.1,6.7-2.1c6.2-3,11.4-7.4,16.1-12.3c1-1.1,2-2.2,2.8-3.4s1.5-2.6,1.9-4
	C-91.1,390.9-93.3,388-98.4,387.9z"/>
<path id="XMLID_18_" class="st0" d="M-50.7,388c0.9-3.4,1.8-6.6,2.6-9.9c0.3,0,0.6-0.1,0.9-0.1c5.1,0,10.2-0.1,15.3,0
	c5.4,0.1,10.2,3.7,11.2,8.6c0.4,2.1,0.4,4.5-0.2,6.5c-2.9,11.2-5.9,22.4-8.9,33.6c-0.1,0.2-0.2,0.5-0.3,0.8c-0.8,0-1.6,0-2.5,0
	c-5.7,0-11.4,0-17.1,0c-1.6,0-3.2-0.2-4.8-0.5c-8-1.7-11.9-8.6-9.5-16.4c1.2-3.7,3.5-6.7,6.6-9c4.7-3.6,10.1-5.7,16.1-5.6
	c2.5,0,5,0,7.5,0c0.9,0,1.3-0.3,1.5-1.2c0.1-0.8,0.4-1.5,0.6-2.3c0.5-2.8-0.6-4.3-3.5-4.4c-3.9-0.1-7.8-0.1-11.7-0.1
	C-48,388-49.2,388-50.7,388z M-35.2,405.8c-3.4,0-6.6-0.2-9.7,0.1c-3.4,0.3-6,2.2-7.3,5.4c-1.3,3.3,0.6,6.1,4.1,6.3
	c2.9,0.1,5.8,0,8.7,0c0.4,0,1-0.3,1.1-0.6C-37.2,413.3-36.2,409.7-35.2,405.8z"/>
<path id="XMLID_17_" class="st0" d="M-24.3,427.5c0.8-3.2,1.6-6.2,2.5-9.3c0.1-0.3,0.8-0.6,1.3-0.6c4.4,0,8.9,0,13.3,0
	c1.1,0,2.2-0.1,3.2-0.3c1.9-0.3,3-1.5,3.5-3.4c0.4-1.7-0.4-2.9-1.7-3.8c-1.4-1-3-1.9-4.5-2.8c-2.2-1.4-4.5-2.6-6.6-4.2
	c-4.2-3.3-5.4-7.5-3.9-12.6c2.1-6.8,7.8-11.7,15.2-12.3c5.5-0.4,11.1-0.1,16.9-0.1c-0.2,0.8-0.4,1.6-0.6,2.4
	c-0.6,2.1-1.2,4.3-1.7,6.4c-0.2,0.9-0.6,1.1-1.5,1.1c-4.4,0-8.8,0-13.1,0c-1.6,0-3,0.5-4,1.8c-1.1,1.4-1.1,2.8,0.3,3.9
	c1.3,1.1,2.9,2,4.4,3c2.3,1.4,4.7,2.7,6.9,4.2c4.4,3.2,5.8,7.5,4.5,12.7c-2.2,9-8.2,13.8-17.4,13.9c-5.3,0.1-10.6,0-15.9,0
	C-23.5,427.6-23.8,427.6-24.3,427.5z"/>
<path id="XMLID_16_" class="st0" d="M62.3,427.6c0.9-3.2,1.6-6.3,2.5-9.3c0.1-0.3,0.9-0.7,1.3-0.7c4.4-0.1,8.9,0,13.3,0
	c1.1,0,2.2-0.1,3.2-0.3c1.9-0.3,3-1.5,3.5-3.4c0.4-1.7-0.4-2.9-1.7-3.8c-1.4-1-3-1.9-4.5-2.8c-2.3-1.5-4.7-2.7-6.8-4.4
	c-3.9-3.1-5.1-7.3-3.7-12.2c2-6.9,6.7-11.2,13.6-12.2c6.1-0.9,12.3-0.5,18.7-0.7c-0.9,3.4-1.7,6.5-2.6,9.6c-0.1,0.3-0.8,0.6-1.3,0.6
	c-4.4,0-8.8,0-13.1,0c-1.7,0-3.1,0.5-4.1,1.9s-1,2.7,0.3,3.8c1.3,1.1,2.9,2,4.4,3c2.3,1.4,4.7,2.6,6.8,4.1c4.7,3.4,6.1,7.9,4.5,13.5
	c-2.5,8.8-8.3,13.2-17.5,13.3C73.6,427.7,68.1,427.6,62.3,427.6z"/>
<path id="XMLID_15_" class="st0" d="M69.7,377.7c-1,3.8-1.9,7-2.8,10.3c-2,0-4,0-5.9,0c-10.4,0.1-18.8,7.7-20.1,18
	c-0.8,6.5,3.6,11.5,10.1,11.6c2.9,0,5.9,0,9.1,0c-0.7,2.6-1.3,5.1-2,7.5c-0.9,3,0,2.5-3.3,2.5c-3.9-0.1-7.8,0.1-11.6-0.6
	c-7.8-1.4-12.9-7.5-13.4-15.5c-0.9-15.4,10.8-30.2,26.2-32.8C60.4,378,64.9,378.1,69.7,377.7z"/>
<path id="XMLID_14_" class="st0" d="M34,378c-1.1,4.2-2.1,8.1-3.1,12.1c-3.1,11.9-6.2,23.9-9.3,35.8c-0.3,1.3-0.8,1.7-2.1,1.7
	c-3-0.1-6,0-9.1,0c0.9-3.4,1.7-6.6,2.5-9.8c3.3-12.7,6.7-25.5,9.9-38.2c0.3-1.1,0.7-1.6,2-1.5C27.7,378.1,30.8,378,34,378z"/>
<path id="XMLID_11_" class="st0" d="M108,422.7c0,2.7-2.3,5-5,4.9c-2.7,0-4.8-2.2-4.8-4.9c0-2.7,2.3-5,5-4.9
	C105.8,417.8,108,420,108,422.7z M103,418.4c-2.4,0-4.3,1.9-4.2,4.3c0,2.4,1.9,4.3,4.3,4.3s4.4-2,4.4-4.4
	C107.3,420.2,105.4,418.3,103,418.4z"/>
<text id="XMLID_1_" transform="matrix(1 0 0 1 101.1289 425.2617)" class="st0 st1 st2">R</text>
</svg>
