<?xml version="1.0" encoding="utf-8"?>
<!-- Generator: Adobe Illustrator 19.0.0, SVG Export Plug-In . SVG Version: 6.00 Build 0)  -->
<svg version="1.1" id="Layer_1" xmlns="http://www.w3.org/2000/svg" xmlns:xlink="http://www.w3.org/1999/xlink" x="0px" y="0px"
	 viewBox="0 0 283.5 283.5" style="enable-background:new 0 0 283.5 283.5;" xml:space="preserve">
<style type="text/css">
	.st0{fill:#FFFFFF;}
</style>
<path id="XMLID_39_" d="M151.1,146.6c-2.3-0.2-4.7-0.4-7-0.5c-6-0.3-12.1-0.7-18.1-0.9c-1.2-0.1-1.6-0.4-1.6-1.6
	c0-1.3,0.6-1.4,1.6-1.4c8.9-0.2,17.8-0.5,26.7-0.8c0.4,0,0.8-0.1,1.2-0.3c-17.5-1.3-35-2.2-52.5-3.2c0-0.2,0-0.3,0-0.5
	c18.7-0.7,37.4-1.4,56.1-2c0-0.2,0-0.3,0-0.5c-17.4-1-34.8-1.9-52.2-2.9c0-0.2,0-0.3,0-0.5c18.6-0.7,37.3-1.3,55.9-2
	c0-0.1,0-0.3,0-0.4c-17.9-1-35.8-2-53.6-3c0-0.1,0-0.3,0-0.4c19-0.7,38-1.3,57.1-2c0-0.1,0-0.3,0-0.4c-18.2-1-36.3-2-54.5-3
	c0-0.1,0-0.2,0-0.3c19.1-0.6,38.2-1.3,57.3-1.9c0-0.1,0-0.2,0-0.4c-6.3-0.4-12.5-0.7-18.9-1.1c1.1-3.2,1.6-3.5,4.4-3.6
	c5.4-0.2,10.7-0.3,16.1-0.5c0.6,0,1.3-0.1,1.9-0.5c-6.3-0.4-12.6-0.8-18.9-1.2c0.5-2.8,1.4-3.6,4-3.7c4.8-0.2,9.5-0.3,14.3-0.4
	c0.7,0,1.4-0.2,2.1-0.3c0-0.1,0-0.3,0-0.4c-5.7-0.3-11.4-0.6-17.1-1c0.3-2.4,1.4-3.5,3.5-3.5c5.4-0.2,10.8-0.3,16.2-0.5
	c0.4,0,0.8-0.1,1.2-0.1c0-0.2,0-0.3,0-0.5c-5.9-0.4-11.9-0.8-17.8-1.1c0.7-2.8,1.6-3.6,4-3.7c4.5-0.2,8.9-0.3,13.4-0.4
	c0.8,0,1.5-0.1,2.3-0.2c0-0.1,0-0.3,0-0.4c-5.5-0.3-11-0.6-16.6-0.9c0.4-1.4,0.8-2.3,2.5-2.2c12.9,0.1,25.8,0,38.7,0.1
	c2.8,0,5.6,0.5,8.3,1.3c7,2.2,10.2,8,9.1,15.3c-0.9,6.1-4.2,10.7-8.8,14.5c-2.8,2.4-5.9,4.2-9.4,5.5c-0.4,0.1-0.8,0.3-1.3,0.6
	c1.6,0.8,3,1.5,4.4,2.3c4,2.5,5.5,6.2,5.2,10.8c-0.6,10-6.6,16.2-14.7,20.8c-5.2,2.9-10.8,4.3-16.8,4.3c-17.1-0.1-34.2,0-51.4-0.1
	c-0.7,0-2,0.5-2-0.8c0-1.4,1.3-0.9,2.1-0.9c3.6-0.2,7.3-0.3,10.9-0.4c0.5,0,0.9-0.1,1.5-0.5c-0.4-0.1-0.8-0.2-1.1-0.2
	c-4-0.2-8.1-0.5-12.1-0.6c-2.2-0.1-1.3-1.6-1.5-2.6c-0.2-1.2,0.6-1.3,1.5-1.4c5.4-0.2,10.7-0.4,16.1-0.6c0.6,0,1.2-0.1,1.8-0.2
	c0-0.2,0-0.3,0-0.5c-0.8,0-1.5,0-2.3,0c-5.1-0.2-10.2-0.5-15.3-0.7c-1.8-0.1-2.6-1.4-1.9-3.1c0.1-0.3,0.9-0.5,1.3-0.6
	c6.7-0.3,13.5-0.5,20.2-0.7c0.5,0,0.9,0,1.4-0.4c-0.3-0.1-0.6-0.2-0.9-0.2c-6.9-0.4-13.8-0.7-20.6-1.1c-1.6-0.1-2.5-1.3-1.8-2.8
	c0.2-0.3,0.9-0.6,1.3-0.6c7.6-0.3,15.1-0.5,22.7-0.7c0.8,0,1.7,0,2.5,0C151.1,147,151.1,146.8,151.1,146.6z M159.1,149.2
	c0.7,0.1,1.1,0.1,1.4,0.1c5,0,9.9,0.1,14.9,0c5.3-0.1,9.2-2.7,11.4-7.5c2.2-4.8-0.1-8.7-5.3-9c-2.6-0.1-5.3,0.2-7.8-0.1
	c-4.1-0.6-6.3,1-8,4.6C163.8,141.4,161.4,145.1,159.1,149.2z M175.2,120.8c0.5,0.1,0.7,0.2,1,0.2c3.3,0,6.6-0.1,9.9,0
	c4.1,0.2,7.2-1.7,9.6-4.8c2.7-3.5,1.6-7.4-2.8-8.4c-3-0.6-6.2-0.4-9.4-0.6c-0.3,0-0.7,0.3-0.9,0.6
	C180.2,112,177.8,116.3,175.2,120.8z"/>
<path id="XMLID_36_" d="M110.7,199.9c-0.1,0.8-0.2,1-0.2,1.3c0.1,1.1-0.4,1.3-1.4,1.3c-3.8,0-3.8,0-3.8-3.8c0-8.5,0-16.9,0-25.4
	c0-1.4,0.5-1.7,1.8-1.7c3.9,0.1,3.9,0,3.9,4c0,1.8,0,3.6,0,5.6c6.8-4.1,12.5-3.1,16.7,3.6c2.8,4.4,1.7,10.9-2,14.6
	c-2,2-4.4,3-7.3,3.2C115.5,202.7,113,202.2,110.7,199.9z M117.1,197.8c3.9,0,7-3.2,7-7c0-3.7-3.1-6.8-6.9-6.8c-3.8,0-7,3.1-7,6.9
	C110.2,194.7,113.3,197.8,117.1,197.8z"/>
<path id="XMLID_35_" d="M88.3,192.6c1.3-3.9,2.7-7.8,3.9-11.7c0.4-1.2,1-1.5,2.1-1.5c0.9,0.1,1.8,0,3,0c-0.6,2.1-1.2,3.8-1.7,5.6
	c-1.7,5.3-3.5,10.5-5,15.9c-0.5,1.9-1.7,1.5-3,1.6c-1.4,0.1-1.6-0.7-1.9-1.7c-1-3.6-2.1-7.2-3.1-10.8c-0.1-0.5-0.4-1-0.9-1.6
	c-0.4,1.3-0.8,2.6-1.2,3.9c-0.9,3.1-1.9,6.1-2.8,9.2c-0.3,0.9-0.9,1-1.6,0.9c-0.9-0.2-2.2,0.6-2.7-0.8c-2.4-7.1-4.8-14.2-7.2-21.4
	c-0.1-0.2,0-0.4,0-0.8c1.4,0,2.8-0.1,4.1,0.1c0.4,0,0.8,0.6,1,1.1c1.4,4,2.7,8,4.4,12.1c0.2-0.5,0.4-1,0.5-1.5c1-3.5,2-7,2.9-10.5
	c0.2-0.9,0.6-1.2,1.5-1.2c3.4-0.2,3.4-0.2,4.3,3.2c0.8,2.9,1.6,5.9,2.5,8.8c0.1,0.4,0.3,0.8,0.4,1.2
	C88.1,192.6,88.2,192.6,88.3,192.6z"/>
<path id="XMLID_32_" d="M245.9,193.4c1,4.2,6.6,5.9,9.4,3.1c1.2-1.2,2.3-1.5,3.8-1.4c1.1,0.1,2.2,0,3.5,0c-0.1,0.5-0.1,0.9-0.2,1.2
	c-2.1,4.8-7.6,7.9-12.7,6.7c-5.2-1.2-9.4-4.6-9.9-11.5c-0.4-5.3,3.2-10.3,8.5-12.2c5.8-2,12.9,1.6,14.7,7.5c0.5,1.5,0.4,3.1,0.6,4.6
	c0.2,1.5-0.4,2-1.9,2c-4.7-0.1-9.3,0-14,0C247.1,193.4,246.5,193.4,245.9,193.4z M257.8,189c-0.3-2.7-2.9-4.9-5.7-5
	c-2.6-0.1-5.5,1.7-6.2,3.9c-0.3,1,0.3,1.1,1,1.1c1.9,0,3.8,0,5.7,0C254.3,189,256,189,257.8,189z"/>
<path id="XMLID_29_" d="M49.2,193.4c1.1,4.4,6.6,5.9,9.6,2.9c1-1,1.9-1.3,3.2-1.2c1.2,0.1,2.4,0,3.9,0c-0.2,0.7-0.3,1.2-0.6,1.7
	c-2.1,4.2-7.4,7.4-12.4,6.3c-8.5-1.9-12-10-8.9-17c2.4-5.4,8.4-8.3,14.1-6.7c5.5,1.5,9.1,6.8,8.7,12.7c-0.1,1.2-0.6,1.5-1.7,1.5
	c-4.8-0.1-9.5,0-14.3,0C50.3,193.4,49.8,193.4,49.2,193.4z M49.1,188.7c0.2,0.1,0.3,0.2,0.5,0.2c3.6,0,7.2,0,10.8,0
	c0.9,0,0.9-0.5,0.7-1.2c-0.9-2.3-3.5-4-6.1-3.8C52,184.2,49.7,186,49.1,188.7z"/>
<path id="XMLID_26_" d="M184.2,181.5c0-1.4,0.8-1.6,1.8-1.5c0.9,0.1,1.9,0,2.8,0c0.9,0,1.2,0.4,1.2,1.2c0,6.7,0,13.4,0,20.1
	c0,0.9-0.3,1.3-1.2,1.2c-0.4,0-0.9,0-1.3,0c-2.4,0-2.4,0-2.9-2.4c-3.1,2.8-6.7,3.1-10.5,2c-2.6-0.7-4.6-2.4-6-4.7
	c-3.1-4.9-2.3-11.4,1.7-15.4C172.8,178.9,178.8,177.3,184.2,181.5z M171.2,190.8c0,3.8,3,6.9,6.9,7c3.8,0,6.9-3.1,6.9-6.9
	c0-3.9-3-6.9-7-6.9C174.2,183.9,171.2,187,171.2,190.8z"/>
<path id="XMLID_23_" d="M148.9,181.4c0-1.4,0.9-1.4,1.9-1.4c3.9,0,3.9,0,3.9,3.9c0,5.7,0,11.3,0,17c0,1.2-0.4,1.8-1.6,1.6
	c-0.2,0-0.4,0-0.6,0c-2.6,0-2.6,0-3.3-2.4c-2.8,2.7-6.3,3-9.8,2.2c-2.6-0.5-4.6-2.1-6.2-4.3c-3.4-4.6-3-11.4,0.8-15.6
	C137,179,143.3,177.1,148.9,181.4z M142.9,197.8c3.8,0,6.8-3.2,6.8-7c0-3.7-3.2-6.8-6.9-6.8c-3.9,0-7,3.1-7,7
	C135.9,194.8,139.1,197.8,142.9,197.8z"/>
<path id="XMLID_22_" d="M198.4,181.6c3.1-2.8,6-3.4,9.1-2.2c4.1,1.6,5.5,5,5.6,9c0.1,4.2,0,8.5,0,12.7c0,0.9-0.3,1.3-1.3,1.3
	c-4.4,0.2-4.3,0.2-4.4-4.1c-0.1-3.6-0.1-7.2-0.4-10.7c-0.2-2.3-1.7-3.5-3.6-3.6c-2-0.1-3.3,0.9-4,3.2c-0.3,1.1-0.4,2.3-0.4,3.5
	c-0.1,3.4-0.1,6.9,0,10.3c0,1.1-0.3,1.5-1.4,1.4c-1.1-0.1-2.2,0-3.2,0c-0.8,0-1.1-0.3-1.1-1c0-7,0-14,0-21c0-0.4,0.6-0.9,1-1
	c0.7-0.2,1.5,0,2.2,0C197.7,179.4,199,179.1,198.4,181.6z"/>
<path id="XMLID_21_" d="M21.2,202.5c0-7.8,0-15.3,0-23c1.5,0,2.9-0.1,4.3,0.1c0.4,0.1,0.8,0.8,1.3,1.4c0,0,0.4-0.2,0.6-0.4
	c3.6-3.3,11.6-2,13.1,5c0.3,1.2,0.4,2.5,0.4,3.8c0.1,3.9,0,7.8,0,11.7c0,1.1-0.4,1.4-1.4,1.4c-4.2,0-4.1,0.1-4.2-4.1
	c-0.1-3.6-0.1-7.3-0.5-10.9c-0.1-1.6-1.1-3.1-3-3.4c-2.1-0.4-3.8,0.6-4.4,2.6c-0.4,1.7-0.6,3.5-0.7,5.2c-0.1,2.9-0.1,5.9,0,8.9
	c0,1.4-0.5,1.8-1.8,1.7C23.8,202.4,22.5,202.5,21.2,202.5z"/>
<path id="XMLID_20_" d="M238.4,194.9c-0.6,4.7-6.5,8.6-12.4,8.1c-5.4-0.5-10.6-4.9-10.9-11.5c-0.3-6.5,4.1-11.8,10.4-12.6
	c6.1-0.8,12,2.8,13.1,8.1c-2,0-3.9,0-5.9,0c-0.3,0-0.6-0.4-0.8-0.7c-2.3-3.3-7.9-2.9-10,0.6c-1.4,2.4-1.6,5-0.3,7.5
	c1.2,2.3,3.2,3.4,5.7,3.5c1.8,0.1,3.2-0.8,4.4-2c0.5-0.5,1.4-0.9,2.1-0.9C235.3,194.8,236.8,194.9,238.4,194.9z"/>
<path id="XMLID_19_" d="M163.9,187.2c0,4.6,0,9.2,0,13.9c0,1.1-0.3,1.5-1.4,1.5c-1-0.1-2.1,0-3.1,0c-0.9,0-1.2-0.3-1.2-1.2
	c0-9.5,0-19,0-28.5c0-0.8,0.3-1.2,1.1-1.1c1.1,0,2.2,0.1,3.2,0c1-0.1,1.4,0.3,1.4,1.4C163.9,177.7,163.9,182.4,163.9,187.2z"/>
<path id="XMLID_18_" d="M113.5,114.2c0.6-0.1,1.1-0.1,1.7-0.2c9.7-0.4,19.3-0.6,29-1.1c1.7-0.1,1.6,0.8,1.7,2
	c0.1,1.4-0.7,1.4-1.7,1.3c-9.9-0.6-19.8-1.1-29.7-1.7c-0.3,0-0.7-0.1-1-0.1C113.5,114.4,113.5,114.3,113.5,114.2z"/>
<path id="XMLID_17_" d="M118.4,108.1c2.9-0.1,5.8-0.2,8.6-0.3c5.6-0.2,11.3-0.4,16.9-0.6c1.3-0.1,1.7,0.4,1.7,1.7
	c0,1.1-0.4,1.3-1.4,1.3c-7.2-0.4-14.4-0.8-21.6-1.2c-1.4-0.1-2.8-0.2-4.2-0.2C118.4,108.5,118.4,108.3,118.4,108.1z"/>
<path id="XMLID_16_" d="M121.8,102.4c2.3-0.1,4.6-0.2,6.9-0.2c5.1-0.2,10.1-0.3,15.2-0.5c1,0,1.7,0.1,1.7,1.4c0,1-0.3,1.2-1.3,1.2
	c-6.6-0.4-13.2-0.7-19.7-1.1c-0.9-0.1-1.8-0.2-2.7-0.3C121.7,102.6,121.7,102.5,121.8,102.4z"/>
<path id="XMLID_15_" d="M96.5,143.3c8.2-0.3,16.4-0.6,24.7-0.9c-0.5,2.2-0.8,2.5-2.7,2.4c-6.9-0.4-13.8-0.8-20.7-1.2
	c-0.4,0-0.9-0.1-1.3-0.2C96.5,143.4,96.5,143.3,96.5,143.3z"/>
<path id="XMLID_14_" d="M87,160.9c8.1-0.3,16.1-0.6,24.4-0.9c-0.5,1.5-0.7,2.6-2.4,2.5c-7.1-0.4-14.1-0.8-21.2-1.2
	c-0.3,0-0.6-0.1-0.9-0.1C87,161.1,87,161,87,160.9z"/>
<path id="XMLID_13_" d="M118,148.2c-0.6,2.3-0.9,2.5-2.7,2.4c-6.8-0.4-13.5-0.8-20.3-1.2c-0.2,0-0.4-0.1-0.6-0.3
	C102.2,148.8,110,148.5,118,148.2z"/>
<path id="XMLID_12_" d="M91.8,154.9c7.5-0.3,15.1-0.5,22.7-0.8c-0.1,1.9-0.8,2.5-2.4,2.4c-6.3-0.3-12.5-0.7-18.8-1
	c-0.5,0-1-0.1-1.5-0.1C91.8,155.3,91.8,155.1,91.8,154.9z"/>
<path id="XMLID_11_" d="M123.5,96.4c2.3,0,4.7,0.1,7,0c4.3-0.1,8.6-0.3,12.9-0.5c1,0,1.8,0,1.8,1.3c0,1.4-0.9,1-1.7,1
	c-6.1-0.4-12.2-0.7-18.4-1.1c-0.6,0-1.1-0.1-1.7-0.2C123.5,96.6,123.5,96.5,123.5,96.4z"/>
<path id="XMLID_10_" d="M128.1,91.3c5.6,0,11.1,0,16.7,0c0.1,1.1,0.1,1.1-1,1.1c-4.1-0.2-8.2-0.4-12.2-0.6c-1.2-0.1-2.3-0.1-3.5-0.2
	C128.1,91.5,128.1,91.4,128.1,91.3z"/>
<path id="XMLID_9_" d="M91.7,166.5c5.4-0.2,10.7-0.5,16.1-0.7c0,0.2,0.1,0.4,0.1,0.6c-0.4,0.2-0.7,0.5-1.1,0.5c-5,0-10.1,0-15.1,0
	C91.7,166.8,91.7,166.6,91.7,166.5z"/>
<path id="XMLID_8_" class="st0" d="M159.1,149.2c2.3-4.1,4.8-7.8,6.6-11.8c1.7-3.7,3.9-5.2,8-4.6c2.6,0.4,5.2,0,7.8,0.1
	c5.3,0.3,7.6,4.2,5.3,9c-2.3,4.8-6.1,7.3-11.4,7.5c-5,0.1-9.9,0-14.9,0C160.1,149.4,159.7,149.3,159.1,149.2z"/>
<path id="XMLID_7_" class="st0" d="M175.2,120.8c2.5-4.4,4.9-8.7,7.4-13c0.2-0.3,0.6-0.6,0.9-0.6c3.1,0.1,6.3-0.1,9.4,0.6
	c4.4,0.9,5.5,4.8,2.8,8.4c-2.4,3.1-5.5,5-9.6,4.8c-3.3-0.1-6.6,0-9.9,0C176,120.9,175.7,120.8,175.2,120.8z"/>
<path id="XMLID_6_" class="st0" d="M117.1,197.8c-3.8,0-6.9-3.1-6.9-7c0-3.8,3.2-6.9,7-6.9c3.8,0,6.9,3.1,6.9,6.8
	C124.1,194.6,120.9,197.8,117.1,197.8z"/>
<path id="XMLID_5_" class="st0" d="M257.8,189c-1.8,0-3.5,0-5.2,0c-1.9,0-3.8,0-5.7,0c-0.7,0-1.3-0.1-1-1.1c0.7-2.2,3.7-4,6.2-3.9
	C254.9,184.1,257.5,186.3,257.8,189z"/>
<path id="XMLID_4_" class="st0" d="M49.1,188.7c0.6-2.7,2.9-4.5,5.8-4.7c2.6-0.2,5.2,1.5,6.1,3.8c0.3,0.7,0.3,1.2-0.7,1.2
	c-3.6,0-7.2,0-10.8,0C49.4,188.9,49.3,188.8,49.1,188.7z"/>
<path id="XMLID_3_" class="st0" d="M171.2,190.8c0-3.8,3.1-6.9,6.8-6.9c4,0,7,3,7,6.9c0,3.8-3.1,7-6.9,6.9
	C174.2,197.8,171.1,194.6,171.2,190.8z"/>
<path id="XMLID_2_" class="st0" d="M142.9,197.8c-3.8,0-7-3.1-7.1-6.8c0-3.9,3-7,7-7c3.7,0,6.9,3.1,6.9,6.8
	C149.8,194.6,146.7,197.8,142.9,197.8z"/>
</svg>
