<?xml version="1.0" encoding="utf-8"?>
<!-- Generator: Adobe Illustrator 19.0.0, SVG Export Plug-In . SVG Version: 6.00 Build 0)  -->
<svg version="1.1" id="Layer_1" xmlns="http://www.w3.org/2000/svg" xmlns:xlink="http://www.w3.org/1999/xlink" x="0px" y="0px"
	 viewBox="0 0 283.5 283.5" style="enable-background:new 0 0 283.5 283.5;" xml:space="preserve">
<style type="text/css">
	.st0{fill:#FFFFFF;}
</style>
<path id="XMLID_15_" d="M164,156.3c-7.2,0-14.4,0-21.9,0c0.3-6.7,0.6-13.4,0.9-20c-0.1,0-0.1,0-0.2-0.1c-0.2,0.4-0.4,0.9-0.5,1.3
	c-2.2,5.8-4.5,11.5-6.7,17.3c-0.4,1.1-1,1.4-2.1,1.4c-4.1-0.1-8.2,0-12.4,0c0.2-0.7,0.4-1.2,0.6-1.8c7-18.1,14-36.2,20.9-54.4
	c0.4-1.1,1-1.4,2.1-1.4c4.1,0.1,8.2,0,12.5,0c-2.6,6.8-5.1,13.4-7.7,20c0.1,0,0.1,0.1,0.2,0.1c0.3-0.3,0.5-0.6,0.8-1
	c4.4-6,8.8-12.1,13.2-18.1c0.4-0.5,1.1-1,1.7-1c13.7-0.1,27.5,0,41.2,0c0.2,0,0.4,0,0.8,0.1c-0.2,0.5-0.3,1-0.4,1.4
	c-1.8,5.1-3.7,10.2-5.5,15.3c-0.4,1-0.9,1.3-1.9,1.3c-4.4-0.1-8.8,0-13.1,0c-0.9,0-1.4,0.2-1.7,1.2c-0.4,1.4-1,2.8-1.6,4.4
	c5.3,0,10.4,0,15.8,0c-0.9,2.5-1.7,4.7-2.5,7c-0.6,1.8-1.3,3.5-1.9,5.3c-0.3,1-0.8,1.2-1.8,1.2c-4.4-0.1-8.8,0-13.1,0
	c-1,0-1.5,0.3-1.8,1.3c-0.6,1.9-1.3,3.8-2.1,5.9c5.3,0,10.4,0,15.7,0c-0.8,2.4-1.6,4.5-2.5,7c23-6.2,45.8-12.4,68.6-18.6
	c0,0.1,0.1,0.1,0.1,0.2c-0.4,0.2-0.7,0.4-1.1,0.6c-56.3,24.3-112.6,48.7-168.8,73c-8.1,3.5-16.6,5.6-25.5,5.4
	c-5.6-0.1-10.9-1.3-15.4-4.7c-8.9-6.6-10.7-14.1-8.6-23.6c1.6-7.5,5-14.3,8.8-20.8c4.8-8.3,10.5-16.1,16.6-23.5
	c0.2-0.2,0.3-0.5,0.8-0.5c-0.2,0.4-0.3,0.9-0.5,1.3c-2.5,5.8-4.4,11.8-4.2,18.3c0.1,2.5,0.5,5.1,1.2,7.5c2.5,7.8,8.3,11.6,16.2,12.7
	c5.3,0.7,10.5,0.3,15.6-1.1c23.4-6.3,46.7-12.6,70-19c0.4-0.1,0.8-0.3,1.2-0.4C164.1,156.5,164,156.4,164,156.3z M158.7,151.7
	c0.1,0,0.2,0.1,0.3,0.1c5.6-15.3,11.1-30.6,16.7-45.9c-5.9,7-11.5,14.1-17.1,21.2c-0.3,0.3-0.4,0.9-0.4,1.4
	C158.3,136.2,158.5,144,158.7,151.7z"/>
<path id="XMLID_14_" d="M91,125.7c-0.2,0.4-0.4,0.9-0.5,1.3c-3.5,9.3-6.9,18.6-10.3,27.9c-0.4,1-0.8,1.5-2,1.4
	c-3.8-0.1-7.6,0-11.5,0c0.1-0.5,0.2-0.9,0.4-1.3c6.8-18.3,13.6-36.7,20.4-55c0.4-1,0.8-1.2,1.8-1.2c4.9,0.1,9.7,0,14.8,0
	c-0.6,8.3-1.1,16.5-1.7,24.8c0.1,0,0.1,0.1,0.2,0.1c0.2-0.5,0.4-0.9,0.6-1.4c2.7-7.4,5.5-14.7,8.2-22.1c0.4-1,0.8-1.3,1.9-1.3
	c3.8,0.1,7.6,0,11.6,0c-0.2,0.6-0.3,1.1-0.5,1.6c-6.7,18.2-13.5,36.4-20.2,54.6c-0.4,1.1-0.9,1.4-2,1.4c-4.2-0.1-8.4,0-12.9,0
	c0.7-10.3,1.4-20.4,2.1-30.6C91.1,125.7,91.1,125.7,91,125.7z"/>
<path id="XMLID_13_" d="M140.3,98.8c-1,2.8-2,5.3-3,7.9c-6.1,16.1-12.2,32.2-18.2,48.3c-0.4,1.1-0.9,1.4-2,1.4
	c-4.1-0.1-8.2,0-12.5,0c0.2-0.6,0.3-1,0.5-1.4c6.9-18.3,13.8-36.6,20.7-54.9c0.2-0.6,0.4-1.2,1.4-1.2
	C131.5,98.8,135.7,98.8,140.3,98.8z"/>
<path id="XMLID_10_" d="M77,169.6c0,1.8-1.5,3.3-3.3,3.3c-1.9,0-3.4-1.6-3.4-3.4c0.1-1.8,1.6-3.2,3.4-3.2
	C75.6,166.3,77,167.8,77,169.6z M75.3,171.1c1.1-1,1.1-2.3,0.1-3.3c-0.9-0.9-2.5-0.9-3.4,0c-0.9,1-0.9,2.5,0.1,3.4
	C73.1,172.3,74.4,172.2,75.3,171.1L75.3,171.1z"/>
<path id="XMLID_7_" d="M215.8,100.7c0,1.8-1.4,3.3-3.2,3.4c-1.8,0.1-3.4-1.5-3.4-3.3c0-1.8,1.6-3.4,3.4-3.4
	C214.3,97.4,215.8,98.9,215.8,100.7z M214,102.4c1.1-1.1,1.1-2.3,0.1-3.3c-1-1-2.5-1-3.4,0c-1,1-1,2.5,0,3.4
	C211.8,103.4,213,103.4,214,102.4L214,102.4z"/>
<path id="XMLID_6_" class="st0" d="M158.7,151.7c-0.2-7.8-0.3-15.5-0.5-23.3c0-0.5,0.1-1,0.4-1.4c5.6-7.1,11.2-14.2,17.1-21.2
	c-5.6,15.3-11.1,30.6-16.7,45.9C158.9,151.8,158.8,151.8,158.7,151.7z"/>
<path id="XMLID_5_" class="st0" d="M75.3,171.1c-1,1.1-2.2,1.2-3.3,0.2c-1-0.9-1-2.5-0.1-3.4c1-1,2.5-1,3.4,0
	C76.4,168.9,76.4,170.1,75.3,171.1c0-0.7-0.9-1.4-0.2-2.2c0.1-0.1-0.4-0.9-0.8-1c-0.6-0.2-1.3,0-2.1,0c0,1,0,1.9,0,2.8
	c0,0.2,0.2,0.4,0.4,0.5c0.2,0,0.4-0.2,0.5-0.3c0.1-0.2,0.1-0.5,0.1-0.5C74.1,170.5,74.7,170.8,75.3,171.1z"/>
<path id="XMLID_4_" class="st0" d="M214.1,102.3c-1.1,1.1-2.3,1.1-3.3,0.1c-1-1-1-2.5,0-3.4c1-1,2.5-1,3.4,0
	C215.2,100,215.1,101.2,214.1,102.3c-0.1-0.8-0.9-1.5-0.2-2.4c0,0-0.5-0.8-0.8-0.9c-0.6-0.2-1.2,0-2,0c0,0.7-0.1,1.4,0,2
	c0.1,0.5,0.3,0.9,0.5,1.3c0.3-0.4,0.5-0.7,0.6-0.9C212.8,101.7,213.5,102,214.1,102.3z"/>
<path id="XMLID_3_" d="M75.3,171.1c-0.6-0.3-1.3-0.5-2-0.9c0,0,0,0.3-0.1,0.5c-0.1,0.2-0.4,0.4-0.5,0.3c-0.2,0-0.4-0.3-0.4-0.5
	c0-0.9,0-1.7,0-2.8c0.8,0,1.5-0.1,2.1,0c0.3,0.1,0.8,0.9,0.8,1C74.4,169.7,75.3,170.4,75.3,171.1C75.3,171.1,75.3,171.1,75.3,171.1z
	"/>
<path id="XMLID_2_" d="M214.1,102.3c-0.6-0.3-1.3-0.6-1.9-0.9c-0.1,0.2-0.4,0.5-0.6,0.9c-0.2-0.4-0.4-0.9-0.5-1.3
	c-0.1-0.6,0-1.2,0-2c0.8,0,1.4-0.1,2,0c0.3,0.1,0.9,0.8,0.8,0.9C213.2,100.8,214,101.6,214.1,102.3
	C214,102.4,214.1,102.3,214.1,102.3z"/>
</svg>
